# xmcd
#
# Track frame offsets:
#	183
#	15978
#	33325
#	47175
#	62095
#	78563
#	94440
#	111963
#	129983
#
# Disc length: 1967 seconds
#
# Revision: 1
# Processed by: cddbd v1.5.2PL0 Copyright (c) Steve Scherf et al.
# Submitted via: audiograbber 1.83.01
#
DISCID=7107ad09
DTITLE=Energy/JMR - Compil'
DYEAR=1900
DGENRE=Zouk
TTITLE0=Pakèt' moun'
TTITLE1=Cherylane
TTITLE2=Swing
TTITLE3=Voyou
TTITLE4=Señorita dièze
TTITLE5=Boss'
TTITLE6=Jaloux
TTITLE7=lè ou lov'
TTITLE8=Viré
EXTD=
EXTT0=
EXTT1=
EXTT2=
EXTT3=
EXTT4=
EXTT5=
EXTT6=
EXTT7=
EXTT8=
PLAYORDER=
